<svg width="669" height="861" viewBox="0 0 669 861" fill="none" xmlns="http://www.w3.org/2000/svg">
<path d="M0 0H669V861H0V0Z" fill="white"/>
<path d="M31.7955 96.1022V86.7272H97.25V96.1022H69.8068V174H59.2387V96.1022H31.7955Z" fill="black"/>
<path d="M113.56 174V86.7272H124.129V125.591H170.663V86.7272H181.231V174H170.663V134.966H124.129V174H113.56Z" fill="black"/>
<path d="M202.389 174V86.7272H255.059V96.1022H212.957V125.591H252.332V134.966H212.957V164.625H255.741V174H202.389Z" fill="black"/>
<path d="M367.516 114C366.579 111.131 365.343 108.56 363.809 106.287C362.303 103.986 360.499 102.026 358.397 100.406C356.323 98.7869 353.965 97.5511 351.323 96.6988C348.681 95.8466 345.783 95.4204 342.63 95.4204C337.46 95.4204 332.758 96.7557 328.525 99.4261C324.292 102.097 320.925 106.031 318.425 111.23C315.925 116.429 314.675 122.807 314.675 130.364C314.675 137.92 315.94 144.298 318.468 149.497C320.996 154.696 324.42 158.631 328.738 161.301C333.056 163.972 337.914 165.307 343.312 165.307C348.312 165.307 352.715 164.241 356.522 162.111C360.357 159.952 363.34 156.912 365.471 152.991C367.63 149.043 368.71 144.398 368.71 139.057L371.948 139.739H345.698V130.364H378.937V139.739C378.937 146.926 377.403 153.176 374.335 158.489C371.295 163.801 367.09 167.92 361.721 170.847C356.38 173.744 350.244 175.193 343.312 175.193C335.585 175.193 328.795 173.375 322.943 169.739C317.119 166.102 312.573 160.932 309.306 154.227C306.068 147.523 304.448 139.568 304.448 130.364C304.448 123.46 305.371 117.253 307.218 111.741C309.093 106.202 311.735 101.486 315.144 97.5937C318.553 93.7017 322.587 90.7187 327.246 88.6449C331.906 86.571 337.033 85.5341 342.63 85.5341C347.232 85.5341 351.522 86.2301 355.499 87.6221C359.505 88.9858 363.07 90.9318 366.195 93.4602C369.349 95.9602 371.977 98.9574 374.079 102.452C376.181 105.918 377.63 109.767 378.425 114H367.516Z" fill="black"/>
<path d="M397.921 174H386.842L418.887 86.7272H429.796L461.842 174H450.762L424.683 100.534H424.001L397.921 174ZM402.012 139.909H446.671V149.284H402.012V139.909Z" fill="black"/>
<path d="M475.435 86.7272H488.049L517.708 159.17H518.731L548.39 86.7272H561.004V174H551.117V107.693H550.265L522.992 174H513.447L486.174 107.693H485.322V174H475.435V86.7272Z" fill="black"/>
<path d="M582.193 174V86.7272H634.864V96.1022H592.761V125.591H632.136V134.966H592.761V164.625H635.545V174H582.193Z" fill="black"/>
<path d="M32.0568 484V471.216L80.0682 418.659C85.7027 412.504 90.3428 407.153 93.9886 402.608C97.6345 398.015 100.333 393.706 102.085 389.682C103.884 385.61 104.784 381.348 104.784 376.898C104.784 371.784 103.553 367.357 101.091 363.616C98.6761 359.876 95.3617 356.988 91.1477 354.952C86.9337 352.916 82.1989 351.898 76.9432 351.898C71.3561 351.898 66.4792 353.058 62.3125 355.378C58.1932 357.651 54.9972 360.847 52.7244 364.966C50.4991 369.085 49.3864 373.915 49.3864 379.455H32.625C32.625 370.932 34.59 363.451 38.5199 357.011C42.4498 350.572 47.8002 345.553 54.571 341.955C61.3892 338.356 69.036 336.557 77.5114 336.557C86.0341 336.557 93.5862 338.356 100.168 341.955C106.749 345.553 111.91 350.406 115.651 356.514C119.391 362.622 121.261 369.417 121.261 376.898C121.261 382.248 120.291 387.48 118.349 392.594C116.456 397.66 113.141 403.318 108.406 409.568C103.719 415.771 97.2083 423.347 88.875 432.295L56.2046 467.239V468.375H123.818V484H32.0568Z" fill="black"/>
<path d="M153.151 484V471.216L201.162 418.659C206.796 412.504 211.437 407.153 215.082 402.608C218.728 398.015 221.427 393.706 223.179 389.682C224.978 385.61 225.878 381.348 225.878 376.898C225.878 371.784 224.647 367.357 222.185 363.616C219.77 359.876 216.455 356.988 212.241 354.952C208.027 352.916 203.293 351.898 198.037 351.898C192.45 351.898 187.573 353.058 183.406 355.378C179.287 357.651 176.091 360.847 173.818 364.966C171.593 369.085 170.48 373.915 170.48 379.455H153.719C153.719 370.932 155.684 363.451 159.614 357.011C163.544 350.572 168.894 345.553 175.665 341.955C182.483 338.356 190.13 336.557 198.605 336.557C207.128 336.557 214.68 338.356 221.261 341.955C227.843 345.553 233.004 350.406 236.744 356.514C240.485 362.622 242.355 369.417 242.355 376.898C242.355 382.248 241.384 387.48 239.443 392.594C237.549 397.66 234.235 403.318 229.5 409.568C224.812 415.771 218.302 423.347 209.969 432.295L177.298 467.239V468.375H244.912V484H153.151Z" fill="black"/>
<path d="M93.3296 230H84.5227C84.0019 227.467 83.0904 225.241 81.7884 223.324C80.5099 221.406 78.9474 219.796 77.1009 218.494C75.2779 217.169 73.2538 216.174 71.0284 215.511C68.803 214.848 66.483 214.517 64.0682 214.517C59.6648 214.517 55.6757 215.63 52.1009 217.855C48.5497 220.08 45.7206 223.359 43.6136 227.692C41.5303 232.024 40.4886 237.339 40.4886 243.636C40.4886 249.934 41.5303 255.249 43.6136 259.581C45.7206 263.913 48.5497 267.192 52.1009 269.418C55.6757 271.643 59.6648 272.756 64.0682 272.756C66.483 272.756 68.803 272.424 71.0284 271.761C73.2538 271.098 75.2779 270.116 77.1009 268.814C78.9474 267.488 80.5099 265.866 81.7884 263.949C83.0904 262.008 84.0019 259.782 84.5227 257.273H93.3296C92.6667 260.99 91.4593 264.316 89.7074 267.251C87.9555 270.187 85.7775 272.685 83.1733 274.744C80.5691 276.78 77.6454 278.331 74.402 279.396C71.1823 280.462 67.7377 280.994 64.0682 280.994C57.8655 280.994 52.3494 279.479 47.5199 276.449C42.6903 273.419 38.8906 269.11 36.1207 263.523C33.3509 257.936 31.9659 251.307 31.9659 243.636C31.9659 235.966 33.3509 229.337 36.1207 223.75C38.8906 218.163 42.6903 213.854 47.5199 210.824C52.3494 207.794 57.8655 206.278 64.0682 206.278C67.7377 206.278 71.1823 206.811 74.402 207.876C77.6454 208.942 80.5691 210.504 83.1733 212.564C85.7775 214.6 87.9555 217.086 89.7074 220.021C91.4593 222.933 92.6667 226.259 93.3296 230Z" fill="black"/>
<path d="M107.561 280V207.273H116.368V239.659H155.146V207.273H163.953V280H155.146V247.472H116.368V280H107.561Z" fill="black"/>
<path d="M184.567 280H175.334L202.039 207.273H211.13L237.834 280H228.601L206.868 218.778H206.3L184.567 280ZM187.976 251.591H225.192V259.403H187.976V251.591Z" fill="black"/>
<path d="M306.833 207.273V280H298.31L258.679 222.898H257.969V280H249.162V207.273H257.685L297.458 264.517H298.168V207.273H306.833Z" fill="black"/>
<path d="M374.171 230C373.39 227.609 372.36 225.466 371.082 223.572C369.827 221.655 368.324 220.021 366.572 218.672C364.844 217.322 362.879 216.293 360.677 215.582C358.475 214.872 356.06 214.517 353.433 214.517C349.124 214.517 345.206 215.63 341.678 217.855C338.151 220.08 335.345 223.359 333.262 227.692C331.179 232.024 330.137 237.339 330.137 243.636C330.137 249.934 331.191 255.249 333.298 259.581C335.405 263.913 338.257 267.192 341.856 269.418C345.454 271.643 349.503 272.756 354.001 272.756C358.167 272.756 361.837 271.868 365.009 270.092C368.205 268.293 370.691 265.76 372.467 262.493C374.266 259.202 375.165 255.331 375.165 250.881L377.864 251.449H355.989V243.636H383.688V251.449C383.688 257.438 382.41 262.647 379.853 267.074C377.32 271.501 373.816 274.934 369.342 277.372C364.891 279.787 359.777 280.994 354.001 280.994C347.561 280.994 341.903 279.479 337.026 276.449C332.173 273.419 328.385 269.11 325.663 263.523C322.964 257.936 321.614 251.307 321.614 243.636C321.614 237.884 322.384 232.711 323.923 228.118C325.485 223.501 327.687 219.572 330.528 216.328C333.369 213.085 336.73 210.599 340.613 208.871C344.495 207.143 348.769 206.278 353.433 206.278C357.268 206.278 360.843 206.858 364.157 208.018C367.495 209.155 370.466 210.777 373.07 212.884C375.698 214.967 377.888 217.464 379.64 220.376C381.392 223.265 382.599 226.473 383.262 230H374.171Z" fill="black"/>
<path d="M407.578 207.273V280H398.772V207.273H407.578Z" fill="black"/>
<path d="M482.907 207.273V280H474.384L434.754 222.898H434.043V280H425.237V207.273H433.759L473.532 264.517H474.242V207.273H482.907Z" fill="black"/>
<path d="M550.245 230C549.464 227.609 548.434 225.466 547.156 223.572C545.901 221.655 544.398 220.021 542.646 218.672C540.918 217.322 538.953 216.293 536.751 215.582C534.549 214.872 532.135 214.517 529.507 214.517C525.198 214.517 521.28 215.63 517.753 217.855C514.225 220.08 511.42 223.359 509.336 227.692C507.253 232.024 506.211 237.339 506.211 243.636C506.211 249.934 507.265 255.249 509.372 259.581C511.479 263.913 514.332 267.192 517.93 269.418C521.529 271.643 525.577 272.756 530.075 272.756C534.242 272.756 537.911 271.868 541.083 270.092C544.279 268.293 546.765 265.76 548.541 262.493C550.34 259.202 551.24 255.331 551.24 250.881L553.939 251.449H532.064V243.636H559.762V251.449C559.762 257.438 558.484 262.647 555.927 267.074C553.394 271.501 549.89 274.934 545.416 277.372C540.965 279.787 535.851 280.994 530.075 280.994C523.636 280.994 517.977 279.479 513.1 276.449C508.247 273.419 504.459 269.11 501.737 263.523C499.038 257.936 497.689 251.307 497.689 243.636C497.689 237.884 498.458 232.711 499.997 228.118C501.559 223.501 503.761 219.572 506.602 216.328C509.443 213.085 512.805 210.599 516.687 208.871C520.57 207.143 524.843 206.278 529.507 206.278C533.342 206.278 536.917 206.858 540.231 208.018C543.569 209.155 546.54 210.777 549.145 212.884C551.772 214.967 553.962 217.464 555.714 220.376C557.466 223.265 558.673 226.473 559.336 230H550.245Z" fill="black"/>
<path d="M32.9258 584L39.9258 542H56.4688C60.8802 542 64.2253 542.984 66.5039 544.953C68.7826 546.904 69.6484 549.52 69.1016 552.801C68.6823 555.298 67.6341 557.276 65.957 558.734C64.2799 560.193 62.1836 561.241 59.668 561.879C61.2174 562.152 62.612 562.745 63.8516 563.656C65.1094 564.568 66.0482 565.78 66.668 567.293C67.2878 568.788 67.4245 570.565 67.0781 572.625C66.7135 574.831 65.8477 576.79 64.4805 578.504C63.1133 580.217 61.3542 581.566 59.2031 582.551C57.0703 583.517 54.6276 584 51.875 584H32.9258ZM38.3398 579.488H52.6406C55.1927 579.488 57.3346 578.823 59.0664 577.492C60.8164 576.161 61.8555 574.402 62.1836 572.215C62.6029 569.845 62.2201 567.958 61.0352 566.555C59.8503 565.151 58.0729 564.449 55.7031 564.449H40.8555L38.3398 579.488ZM41.5391 560.129H53.707C55.5664 560.129 57.2435 559.837 58.7383 559.254C60.2331 558.652 61.4544 557.814 62.4023 556.738C63.3685 555.645 63.9609 554.387 64.1797 552.965C64.526 550.941 63.9518 549.365 62.457 548.234C60.9805 547.086 58.7292 546.512 55.7031 546.512H43.8086L41.5391 560.129Z" fill="black"/>
<path d="M81.9326 577.082L109.823 542H115.729L108.729 584H103.862L109.659 548.918L81.8232 584H75.8623L82.8623 542H87.7295L81.9326 577.082Z" fill="black"/>
<path d="M153.546 542L152.78 546.594H132.683L126.448 584H121.581L128.581 542H153.546Z" fill="black"/>
<path d="M154.147 599.75L163.827 542H168.558L167.245 550.012H167.819C168.585 548.754 169.578 547.46 170.8 546.129C172.039 544.798 173.58 543.686 175.421 542.793C177.28 541.882 179.504 541.426 182.093 541.426C185.556 541.426 188.427 542.328 190.706 544.133C193.003 545.938 194.607 548.471 195.519 551.734C196.448 554.997 196.549 558.789 195.819 563.109C195.108 567.448 193.75 571.249 191.745 574.512C189.74 577.775 187.288 580.318 184.39 582.141C181.509 583.964 178.356 584.875 174.929 584.875C172.395 584.875 170.344 584.419 168.776 583.508C167.227 582.596 166.042 581.475 165.222 580.145C164.401 578.796 163.809 577.483 163.444 576.207H163.007L159.069 599.75H154.147ZM165.14 563.027C164.593 566.418 164.593 569.426 165.14 572.051C165.687 574.658 166.789 576.708 168.448 578.203C170.107 579.68 172.295 580.418 175.011 580.418C177.8 580.418 180.288 579.652 182.476 578.121C184.663 576.572 186.486 574.484 187.944 571.859C189.403 569.234 190.405 566.29 190.952 563.027C191.463 559.801 191.444 556.893 190.897 554.305C190.351 551.716 189.257 549.665 187.616 548.152C185.976 546.621 183.743 545.855 180.917 545.855C178.183 545.855 175.722 546.594 173.534 548.07C171.365 549.529 169.56 551.552 168.12 554.141C166.68 556.711 165.687 559.673 165.14 563.027Z" fill="black"/>
<path d="M214.639 584.957C212.105 584.957 209.872 584.465 207.939 583.48C206.007 582.478 204.567 581.038 203.619 579.16C202.689 577.264 202.434 574.967 202.854 572.27C203.218 570.191 203.911 568.441 204.932 567.02C205.971 565.598 207.283 564.431 208.869 563.52C210.455 562.59 212.278 561.861 214.338 561.332C216.398 560.803 218.64 560.402 221.064 560.129C223.434 559.837 225.458 559.582 227.135 559.363C228.812 559.145 230.115 558.798 231.045 558.324C231.975 557.85 232.531 557.085 232.713 556.027L232.877 555.043C233.351 552.181 232.913 549.93 231.564 548.289C230.215 546.63 227.955 545.801 224.783 545.801C221.757 545.801 219.132 546.475 216.908 547.824C214.702 549.155 213.062 550.714 211.986 552.5L207.666 550.832C208.979 548.535 210.592 546.703 212.506 545.336C214.42 543.951 216.471 542.957 218.658 542.355C220.846 541.736 223.006 541.426 225.139 541.426C226.743 541.426 228.374 541.635 230.033 542.055C231.692 542.474 233.178 543.203 234.49 544.242C235.821 545.263 236.796 546.694 237.416 548.535C238.054 550.358 238.145 552.673 237.689 555.48L232.932 584H228.064L229.186 577.355H228.885C228.119 578.595 227.062 579.798 225.713 580.965C224.382 582.132 222.787 583.089 220.928 583.836C219.068 584.583 216.972 584.957 214.639 584.957ZM215.869 580.5C218.458 580.5 220.8 579.926 222.896 578.777C225.011 577.629 226.743 576.107 228.092 574.211C229.459 572.297 230.334 570.191 230.717 567.895L231.729 561.824C231.327 562.171 230.671 562.48 229.76 562.754C228.867 563.027 227.855 563.273 226.725 563.492C225.613 563.693 224.492 563.866 223.361 564.012C222.249 564.158 221.265 564.285 220.408 564.395C217.984 564.686 215.869 565.142 214.064 565.762C212.278 566.382 210.847 567.238 209.771 568.332C208.696 569.408 208.021 570.793 207.748 572.488C207.329 575.04 207.885 577.018 209.416 578.422C210.965 579.807 213.117 580.5 215.869 580.5Z" fill="black"/>
<path d="M252.879 542H257.746L251.512 579.406H268.738L274.973 542H279.84L273.605 579.406H290.832L297.066 542H301.934L294.934 584H245.879L252.879 542Z" fill="black"/>
<path d="M340.023 560.73L339.285 565.324H314.566L315.332 560.73H340.023ZM319.707 542L312.707 584H307.84L314.812 542H319.707ZM346.777 542L339.777 584H334.91L341.883 542H346.777Z" fill="black"/>
<path d="M364.353 584.957C361.819 584.957 359.586 584.465 357.653 583.48C355.721 582.478 354.281 581.038 353.333 579.16C352.403 577.264 352.148 574.967 352.567 572.27C352.932 570.191 353.625 568.441 354.646 567.02C355.685 565.598 356.997 564.431 358.583 563.52C360.169 562.59 361.992 561.861 364.052 561.332C366.112 560.803 368.354 560.402 370.778 560.129C373.148 559.837 375.172 559.582 376.849 559.363C378.526 559.145 379.829 558.798 380.759 558.324C381.688 557.85 382.244 557.085 382.427 556.027L382.591 555.043C383.065 552.181 382.627 549.93 381.278 548.289C379.929 546.63 377.669 545.801 374.497 545.801C371.471 545.801 368.846 546.475 366.622 547.824C364.416 549.155 362.776 550.714 361.7 552.5L357.38 550.832C358.692 548.535 360.306 546.703 362.22 545.336C364.134 543.951 366.185 542.957 368.372 542.355C370.56 541.736 372.72 541.426 374.853 541.426C376.457 541.426 378.088 541.635 379.747 542.055C381.406 542.474 382.892 543.203 384.204 544.242C385.535 545.263 386.51 546.694 387.13 548.535C387.768 550.358 387.859 552.673 387.403 555.48L382.646 584H377.778L378.899 577.355H378.599C377.833 578.595 376.776 579.798 375.427 580.965C374.096 582.132 372.501 583.089 370.642 583.836C368.782 584.583 366.686 584.957 364.353 584.957ZM365.583 580.5C368.172 580.5 370.514 579.926 372.61 578.777C374.725 577.629 376.457 576.107 377.806 574.211C379.173 572.297 380.048 570.191 380.431 567.895L381.442 561.824C381.041 562.171 380.385 562.48 379.474 562.754C378.58 563.027 377.569 563.273 376.438 563.492C375.326 563.693 374.205 563.866 373.075 564.012C371.963 564.158 370.979 564.285 370.122 564.395C367.698 564.686 365.583 565.142 363.778 565.762C361.992 566.382 360.561 567.238 359.485 568.332C358.41 569.408 357.735 570.793 357.462 572.488C357.043 575.04 357.599 577.018 359.13 578.422C360.679 579.807 362.83 580.5 365.583 580.5Z" fill="black"/>
<path d="M32.9258 658L39.9258 616H44.793L41.6211 634.895H46.1328L64.918 616H71.2617L51.0273 636.207L64.6445 658H58.4102L46.9805 639.488H40.9102L37.793 658H32.9258Z" fill="black"/>
<path d="M87.415 658.875C83.7327 658.875 80.6338 657.945 78.1182 656.086C75.6025 654.208 73.8252 651.611 72.7861 648.293C71.7471 644.975 71.5739 641.147 72.2666 636.809C72.9593 632.579 74.3356 628.861 76.3955 625.652C78.4736 622.426 81.0257 619.919 84.0518 618.133C87.0778 616.328 90.3682 615.426 93.9229 615.426C97.6234 615.426 100.722 616.365 103.22 618.242C105.735 620.12 107.513 622.717 108.552 626.035C109.609 629.353 109.791 633.19 109.099 637.547C108.406 641.758 107.021 645.467 104.942 648.676C102.864 651.866 100.312 654.363 97.2861 656.168C94.2783 657.973 90.988 658.875 87.415 658.875ZM87.4697 654.418C90.4593 654.418 93.1208 653.625 95.4541 652.039C97.8057 650.435 99.7471 648.302 101.278 645.641C102.81 642.961 103.84 640.017 104.368 636.809C104.86 633.746 104.806 630.93 104.204 628.359C103.603 625.789 102.445 623.729 100.731 622.18C99.0179 620.63 96.7393 619.855 93.8955 619.855C90.9242 619.855 88.2627 620.667 85.9111 622.289C83.5596 623.893 81.6182 626.044 80.0869 628.742C78.5557 631.422 77.5348 634.357 77.0244 637.547C76.514 640.628 76.5505 643.444 77.1338 645.996C77.7354 648.548 78.8929 650.59 80.6064 652.121C82.3382 653.652 84.626 654.418 87.4697 654.418Z" fill="black"/>
<path d="M139.471 651.191L161.127 616H165.857L140.291 658H136.408L125.061 616H129.709L139.471 651.191ZM128.26 616L121.26 658H116.393L123.393 616H128.26ZM155.439 658L162.439 616H167.307L160.307 658H155.439Z" fill="black"/>
<path d="M213.107 600.25L215.131 603.34C213.8 604.452 212.305 605.217 210.646 605.637C208.988 606.038 207.174 606.266 205.205 606.32C203.236 606.375 201.122 606.457 198.861 606.566C195.598 606.712 192.791 607.56 190.439 609.109C188.088 610.659 186.128 612.865 184.561 615.727C182.993 618.57 181.735 622.025 180.787 626.09H181.334C183.212 623.228 185.527 621.049 188.279 619.555C191.05 618.06 193.967 617.312 197.029 617.312C200.256 617.312 203.036 618.105 205.369 619.691C207.721 621.259 209.407 623.574 210.428 626.637C211.467 629.681 211.622 633.418 210.893 637.848C210.182 642.15 208.833 645.878 206.846 649.031C204.859 652.167 202.37 654.591 199.381 656.305C196.41 658.018 193.092 658.875 189.428 658.875C185.8 658.875 182.747 658.009 180.268 656.277C177.788 654.546 176.048 651.993 175.045 648.621C174.042 645.249 173.933 641.12 174.717 636.234L175.482 631.832C177.105 622.043 179.876 614.678 183.795 609.738C187.714 604.798 192.91 602.219 199.381 602C201.477 601.927 203.364 601.909 205.041 601.945C206.736 601.964 208.24 601.882 209.553 601.699C210.883 601.499 212.068 601.016 213.107 600.25ZM190.029 654.418C192.8 654.418 195.288 653.734 197.494 652.367C199.7 650.982 201.532 649.04 202.99 646.543C204.467 644.027 205.488 641.074 206.053 637.684C206.6 634.311 206.508 631.44 205.779 629.07C205.068 626.701 203.82 624.896 202.033 623.656C200.265 622.398 198.077 621.77 195.471 621.77C193.393 621.77 191.46 622.18 189.674 623C187.887 623.802 186.292 624.941 184.889 626.418C183.485 627.876 182.309 629.59 181.361 631.559C180.432 633.509 179.766 635.642 179.365 637.957C178.527 643.007 179.083 647.017 181.033 649.988C183.002 652.941 186.001 654.418 190.029 654.418Z" fill="black"/>
<path d="M218.337 658L225.337 616H230.231L223.231 658H218.337ZM229.548 608.699C228.527 608.699 227.661 608.353 226.95 607.66C226.257 606.967 225.92 606.129 225.938 605.145C225.975 604.215 226.349 603.413 227.06 602.738C227.789 602.046 228.646 601.699 229.63 601.699C230.651 601.699 231.517 602.055 232.228 602.766C232.938 603.458 233.276 604.297 233.239 605.281C233.221 606.211 232.847 607.013 232.118 607.688C231.389 608.362 230.532 608.699 229.548 608.699Z" fill="black"/>
<path d="M268.287 634.73L267.549 639.324H242.83L243.596 634.73H268.287ZM247.971 616L240.971 658H236.104L243.076 616H247.971ZM275.041 616L268.041 658H263.174L270.146 616H275.041Z" fill="black"/>
<path d="M292.616 658.957C290.082 658.957 287.849 658.465 285.917 657.48C283.985 656.478 282.545 655.038 281.597 653.16C280.667 651.264 280.412 648.967 280.831 646.27C281.196 644.191 281.888 642.441 282.909 641.02C283.948 639.598 285.261 638.431 286.847 637.52C288.433 636.59 290.256 635.861 292.315 635.332C294.375 634.803 296.618 634.402 299.042 634.129C301.412 633.837 303.435 633.582 305.112 633.363C306.789 633.145 308.093 632.798 309.022 632.324C309.952 631.85 310.508 631.085 310.69 630.027L310.854 629.043C311.328 626.181 310.891 623.93 309.542 622.289C308.193 620.63 305.933 619.801 302.761 619.801C299.735 619.801 297.11 620.475 294.886 621.824C292.68 623.155 291.039 624.714 289.964 626.5L285.644 624.832C286.956 622.535 288.569 620.703 290.483 619.336C292.397 617.951 294.448 616.957 296.636 616.355C298.823 615.736 300.983 615.426 303.116 615.426C304.72 615.426 306.352 615.635 308.011 616.055C309.67 616.474 311.155 617.203 312.468 618.242C313.799 619.263 314.774 620.694 315.394 622.535C316.032 624.358 316.123 626.673 315.667 629.48L310.909 658H306.042L307.163 651.355H306.862C306.097 652.595 305.039 653.798 303.69 654.965C302.36 656.132 300.765 657.089 298.905 657.836C297.046 658.583 294.95 658.957 292.616 658.957ZM293.847 654.5C296.435 654.5 298.778 653.926 300.874 652.777C302.989 651.629 304.72 650.107 306.069 648.211C307.437 646.297 308.312 644.191 308.694 641.895L309.706 635.824C309.305 636.171 308.649 636.48 307.737 636.754C306.844 637.027 305.832 637.273 304.702 637.492C303.59 637.693 302.469 637.866 301.339 638.012C300.227 638.158 299.243 638.285 298.386 638.395C295.961 638.686 293.847 639.142 292.042 639.762C290.256 640.382 288.825 641.238 287.749 642.332C286.674 643.408 285.999 644.793 285.726 646.488C285.306 649.04 285.862 651.018 287.394 652.422C288.943 653.807 291.094 654.5 293.847 654.5Z" fill="black"/>
<path d="M362.384 616L356.149 653.379H360.579L357.653 671.59H352.786L354.974 658H323.583L330.583 616H335.478L329.243 653.406H351.255L357.489 616H362.384Z" fill="black"/>
<path d="M370.607 658L377.607 616H382.502L375.502 658H370.607ZM381.818 608.699C380.798 608.699 379.932 608.353 379.221 607.66C378.528 606.967 378.191 606.129 378.209 605.145C378.245 604.215 378.619 603.413 379.33 602.738C380.059 602.046 380.916 601.699 381.9 601.699C382.921 601.699 383.787 602.055 384.498 602.766C385.209 603.458 385.546 604.297 385.51 605.281C385.492 606.211 385.118 607.013 384.389 607.688C383.66 608.362 382.803 608.699 381.818 608.699Z" fill="black"/>
<path d="M413.64 658L419.874 620.512H408.308C405.3 620.53 402.903 621.168 401.116 622.426C399.348 623.665 398.272 625.525 397.89 628.004C397.47 630.428 397.89 632.26 399.147 633.5C400.424 634.721 402.483 635.332 405.327 635.332H418.78L418.015 639.926H404.562C401.681 639.926 399.302 639.461 397.425 638.531C395.565 637.583 394.262 636.216 393.515 634.43C392.767 632.625 392.603 630.438 393.022 627.867C393.442 625.315 394.335 623.164 395.702 621.414C397.069 619.646 398.874 618.306 401.116 617.395C403.377 616.465 406.029 616 409.073 616H425.288L418.288 658H413.64ZM385.339 658L400.925 637.109H406.312L390.726 658H385.339Z" fill="black"/>
<path d="M27.4773 771V767.108L46.4829 745.744C48.964 742.941 50.9621 740.545 52.4773 738.557C53.9924 736.568 55.0909 734.731 55.7727 733.045C56.4735 731.36 56.8239 729.608 56.8239 727.79C56.8239 725.574 56.303 723.642 55.2614 721.994C54.2386 720.328 52.8276 719.03 51.0284 718.102C49.2292 717.174 47.2026 716.71 44.9489 716.71C42.5625 716.71 40.4697 717.222 38.6704 718.244C36.8901 719.267 35.5076 720.669 34.5227 722.449C33.5379 724.229 33.0454 726.275 33.0454 728.585H27.9602C27.9602 725.366 28.6989 722.515 30.1761 720.034C31.6723 717.534 33.7083 715.574 36.2841 714.153C38.8788 712.733 41.8144 712.023 45.0909 712.023C48.3295 712.023 51.2083 712.723 53.7273 714.125C56.2462 715.508 58.2254 717.392 59.6648 719.778C61.1042 722.165 61.8239 724.835 61.8239 727.79C61.8239 729.93 61.4451 732.004 60.6875 734.011C59.9489 736.019 58.6704 738.254 56.8523 740.716C55.0341 743.178 52.5151 746.189 49.2954 749.75L34.8636 765.858V766.227H63.642V771H27.4773Z" fill="black"/>
<path d="M76.3054 771V767.108L95.3111 745.744C97.7921 742.941 99.7902 740.545 101.305 738.557C102.821 736.568 103.919 734.731 104.601 733.045C105.302 731.36 105.652 729.608 105.652 727.79C105.652 725.574 105.131 723.642 104.089 721.994C103.067 720.328 101.656 719.03 99.8565 718.102C98.0573 717.174 96.0308 716.71 93.777 716.71C91.3906 716.71 89.2978 717.222 87.4986 718.244C85.7183 719.267 84.3357 720.669 83.3508 722.449C82.366 724.229 81.8736 726.275 81.8736 728.585H76.7883C76.7883 725.366 77.527 722.515 79.0043 720.034C80.5005 717.534 82.5364 715.574 85.1122 714.153C87.7069 712.733 90.6425 712.023 93.919 712.023C97.1577 712.023 100.036 712.723 102.555 714.125C105.074 715.508 107.053 717.392 108.493 719.778C109.932 722.165 110.652 724.835 110.652 727.79C110.652 729.93 110.273 732.004 109.516 734.011C108.777 736.019 107.499 738.254 105.68 740.716C103.862 743.178 101.343 746.189 98.1236 749.75L83.6918 765.858V766.227H112.47V771H76.3054Z" fill="black"/>
<path d="M125.332 771V727.364H130.247V734.068H130.702C131.573 731.814 133.022 730.044 135.048 728.756C137.094 727.449 139.546 726.795 142.406 726.795C145.418 726.795 147.889 727.506 149.821 728.926C151.772 730.328 153.23 732.259 154.196 734.722H154.565C155.55 732.297 157.151 730.375 159.366 728.955C161.601 727.515 164.31 726.795 167.491 726.795C171.545 726.795 174.745 728.074 177.094 730.631C179.442 733.169 180.616 736.881 180.616 741.767V771H175.56V741.767C175.56 738.32 174.679 735.735 172.918 734.011C171.156 732.288 168.836 731.426 165.957 731.426C162.624 731.426 160.058 732.449 158.259 734.494C156.459 736.54 155.56 739.134 155.56 742.278V771H150.389V741.312C150.389 738.358 149.565 735.972 147.918 734.153C146.27 732.335 143.95 731.426 140.957 731.426C138.95 731.426 137.141 731.919 135.531 732.903C133.94 733.888 132.681 735.261 131.753 737.023C130.844 738.765 130.389 740.773 130.389 743.045V771H125.332Z" fill="black"/>
<path d="M223.322 736.937L218.692 738.244C218.237 736.937 217.593 735.754 216.76 734.693C215.927 733.633 214.838 732.79 213.493 732.165C212.167 731.54 210.519 731.227 208.55 731.227C205.595 731.227 203.171 731.928 201.277 733.33C199.383 734.731 198.436 736.54 198.436 738.756C198.436 740.631 199.08 742.155 200.368 743.33C201.675 744.485 203.682 745.403 206.391 746.085L212.982 747.705C216.637 748.595 219.374 750.006 221.192 751.937C223.029 753.869 223.947 756.294 223.947 759.21C223.947 761.672 223.266 763.86 221.902 765.773C220.538 767.686 218.635 769.191 216.192 770.29C213.767 771.369 210.955 771.909 207.754 771.909C203.493 771.909 199.98 770.953 197.214 769.04C194.449 767.108 192.678 764.324 191.902 760.687L196.76 759.494C197.385 762.089 198.607 764.049 200.425 765.375C202.262 766.701 204.677 767.364 207.669 767.364C211.021 767.364 213.701 766.616 215.709 765.119C217.716 763.604 218.72 761.71 218.72 759.437C218.72 757.676 218.133 756.199 216.959 755.006C215.785 753.794 214.004 752.903 211.618 752.335L204.487 750.631C200.699 749.722 197.896 748.282 196.078 746.312C194.26 744.343 193.351 741.9 193.351 738.983C193.351 736.578 194.004 734.466 195.311 732.648C196.618 730.811 198.417 729.371 200.709 728.33C203 727.288 205.614 726.767 208.55 726.767C212.546 726.767 215.737 727.676 218.124 729.494C220.529 731.294 222.262 733.775 223.322 736.937Z" fill="black"/>
<path d="M252.207 727.364V731.767H231.384V727.364H252.207ZM237.889 716.909H242.974V759.608C242.974 761.426 243.287 762.856 243.912 763.898C244.537 764.92 245.351 765.65 246.355 766.085C247.359 766.502 248.429 766.71 249.565 766.71C250.228 766.71 250.796 766.672 251.27 766.597C251.743 766.502 252.16 766.407 252.52 766.312L253.599 770.886C253.107 771.076 252.501 771.246 251.781 771.398C251.062 771.568 250.171 771.653 249.111 771.653C247.255 771.653 245.465 771.246 243.741 770.432C242.037 769.617 240.635 768.405 239.537 766.795C238.438 765.186 237.889 763.187 237.889 760.801V716.909Z" fill="black"/>
<path d="M263.692 771V727.364H268.607V734.068H268.976C269.847 731.871 271.362 730.1 273.521 728.756C275.699 727.392 278.161 726.71 280.908 726.71C281.324 726.71 281.788 726.72 282.3 726.739C282.811 726.758 283.237 726.776 283.578 726.795V731.937C283.351 731.9 282.953 731.843 282.385 731.767C281.817 731.691 281.201 731.653 280.538 731.653C278.266 731.653 276.239 732.136 274.459 733.102C272.697 734.049 271.305 735.366 270.283 737.051C269.26 738.737 268.749 740.659 268.749 742.818V771H263.692Z" fill="black"/>
<path d="M321.526 736.937L316.895 738.244C316.44 736.937 315.796 735.754 314.963 734.693C314.13 733.633 313.041 732.79 311.696 732.165C310.37 731.54 308.723 731.227 306.753 731.227C303.798 731.227 301.374 731.928 299.48 733.33C297.586 734.731 296.639 736.54 296.639 738.756C296.639 740.631 297.283 742.155 298.571 743.33C299.878 744.485 301.885 745.403 304.594 746.085L311.185 747.705C314.84 748.595 317.577 750.006 319.395 751.937C321.232 753.869 322.151 756.294 322.151 759.21C322.151 761.672 321.469 763.86 320.105 765.773C318.741 767.686 316.838 769.191 314.395 770.29C311.971 771.369 309.158 771.909 305.957 771.909C301.696 771.909 298.183 770.953 295.418 769.04C292.652 767.108 290.882 764.324 290.105 760.687L294.963 759.494C295.588 762.089 296.81 764.049 298.628 765.375C300.465 766.701 302.88 767.364 305.872 767.364C309.224 767.364 311.904 766.616 313.912 765.119C315.92 763.604 316.923 761.71 316.923 759.437C316.923 757.676 316.336 756.199 315.162 755.006C313.988 753.794 312.207 752.903 309.821 752.335L302.69 750.631C298.902 749.722 296.099 748.282 294.281 746.312C292.463 744.343 291.554 741.9 291.554 738.983C291.554 736.578 292.207 734.466 293.514 732.648C294.821 730.811 296.62 729.371 298.912 728.33C301.204 727.288 303.817 726.767 306.753 726.767C310.749 726.767 313.94 727.676 316.327 729.494C318.732 731.294 320.465 733.775 321.526 736.937Z" fill="black"/>
<path d="M337.257 771.426C336.14 771.426 335.174 771.028 334.359 770.233C333.564 769.419 333.166 768.453 333.166 767.335C333.166 766.199 333.564 765.233 334.359 764.437C335.174 763.642 336.14 763.244 337.257 763.244C338.393 763.244 339.359 763.642 340.155 764.437C340.95 765.233 341.348 766.199 341.348 767.335C341.348 768.074 341.159 768.756 340.78 769.381C340.42 770.006 339.928 770.508 339.303 770.886C338.696 771.246 338.015 771.426 337.257 771.426Z" fill="black"/>
<path d="M371.753 771.909C367.851 771.909 364.452 770.934 361.554 768.983C358.675 767.032 356.44 764.362 354.849 760.972C353.259 757.581 352.463 753.718 352.463 749.381C352.463 745.006 353.268 741.114 354.878 737.705C356.507 734.295 358.76 731.625 361.639 729.693C364.518 727.742 367.861 726.767 371.668 726.767C374.584 726.767 377.226 727.335 379.594 728.472C381.961 729.589 383.912 731.17 385.446 733.216C386.999 735.242 387.974 737.61 388.372 740.318H383.259C382.728 737.856 381.45 735.754 379.423 734.011C377.416 732.25 374.859 731.369 371.753 731.369C368.969 731.369 366.507 732.127 364.366 733.642C362.226 735.138 360.55 737.231 359.338 739.92C358.145 742.591 357.548 745.687 357.548 749.21C357.548 752.752 358.135 755.886 359.31 758.614C360.484 761.322 362.132 763.443 364.253 764.977C366.393 766.511 368.893 767.278 371.753 767.278C373.685 767.278 375.446 766.919 377.037 766.199C378.647 765.46 379.991 764.419 381.071 763.074C382.169 761.729 382.908 760.129 383.287 758.273H388.401C388.022 760.905 387.084 763.254 385.588 765.318C384.111 767.364 382.188 768.973 379.821 770.148C377.473 771.322 374.783 771.909 371.753 771.909Z" fill="black"/>
<path d="M416.199 771.909C412.43 771.909 409.097 770.953 406.199 769.04C403.32 767.127 401.066 764.485 399.438 761.114C397.809 757.723 396.994 753.812 396.994 749.381C396.994 744.911 397.809 740.981 399.438 737.591C401.066 734.182 403.32 731.53 406.199 729.636C409.097 727.723 412.43 726.767 416.199 726.767C419.968 726.767 423.292 727.723 426.17 729.636C429.049 731.549 431.303 734.201 432.932 737.591C434.58 740.981 435.403 744.911 435.403 749.381C435.403 753.812 434.589 757.723 432.96 761.114C431.331 764.485 429.068 767.127 426.17 769.04C423.292 770.953 419.968 771.909 416.199 771.909ZM416.199 767.278C419.229 767.278 421.795 766.464 423.898 764.835C426 763.206 427.591 761.038 428.67 758.33C429.769 755.621 430.318 752.638 430.318 749.381C430.318 746.123 429.769 743.131 428.67 740.403C427.591 737.676 426 735.489 423.898 733.841C421.795 732.193 419.229 731.369 416.199 731.369C413.187 731.369 410.621 732.193 408.5 733.841C406.398 735.489 404.797 737.676 403.699 740.403C402.619 743.131 402.08 746.123 402.08 749.381C402.08 752.638 402.619 755.621 403.699 758.33C404.797 761.038 406.398 763.206 408.5 764.835C410.602 766.464 413.169 767.278 416.199 767.278Z" fill="black"/>
<path d="M446.504 771V727.364H451.419V734.068H451.874C452.745 731.814 454.194 730.044 456.22 728.756C458.266 727.449 460.718 726.795 463.578 726.795C466.589 726.795 469.061 727.506 470.993 728.926C472.944 730.328 474.402 732.259 475.368 734.722H475.737C476.722 732.297 478.322 730.375 480.538 728.955C482.773 727.515 485.482 726.795 488.663 726.795C492.716 726.795 495.917 728.074 498.266 730.631C500.614 733.169 501.788 736.881 501.788 741.767V771H496.732V741.767C496.732 738.32 495.851 735.735 494.089 734.011C492.328 732.288 490.008 731.426 487.129 731.426C483.796 731.426 481.23 732.449 479.43 734.494C477.631 736.54 476.732 739.134 476.732 742.278V771H471.561V741.312C471.561 738.358 470.737 735.972 469.089 734.153C467.442 732.335 465.122 731.426 462.129 731.426C460.122 731.426 458.313 731.919 456.703 732.903C455.112 733.888 453.853 735.261 452.925 737.023C452.016 738.765 451.561 740.773 451.561 743.045V771H446.504Z" fill="black"/>
<path d="M307.663 397L319.5 412.962L331.442 397H342.86L326.134 417.5L343 438H331.582L319.5 422.678L307.453 438H296L312.691 417.5L296.21 397H307.663Z" fill="black"/>
<path fill-rule="evenodd" clip-rule="evenodd" d="M442.08 350.843C445.253 351.073 448.99 351.068 452.942 350.953L453.058 354.951C449.059 355.068 445.164 355.077 441.791 354.832C438.478 354.592 435.43 354.095 433.27 353.066C432.173 352.544 431.13 351.803 430.464 350.719C429.759 349.571 429.613 348.263 429.943 346.934C430.256 345.671 430.99 344.407 432.005 343.141C433.032 341.86 434.43 340.476 436.209 338.973L438.791 342.027C437.132 343.43 435.939 344.63 435.125 345.644C434.301 346.672 433.945 347.412 433.825 347.898C433.721 348.318 433.797 348.502 433.872 348.625C433.987 348.811 434.284 349.118 434.99 349.455C436.436 350.144 438.848 350.609 442.08 350.843Z" fill="black"/>
<path fill-rule="evenodd" clip-rule="evenodd" d="M540.504 343.258C543 342.85 544.051 342.936 544.999 343.607C546.193 344.451 547.986 346.796 549.902 353.396L556.624 351.444C554.632 344.582 552.299 340.196 549.042 337.892C545.555 335.425 541.849 335.937 539.226 336.374L539.088 336.397L538.952 336.431C538.846 336.458 538.729 336.486 538.602 336.517C536.457 337.037 531.445 338.253 524.967 343.652C521.364 346.654 518.427 350.897 516.403 354.796C515.379 356.768 514.549 358.727 513.968 360.5C513.408 362.209 513 363.979 513 365.5V399H520V365.5C520 365.067 520.149 364.116 520.62 362.68C521.069 361.309 521.744 359.699 522.615 358.022C524.381 354.62 526.797 351.238 529.448 349.029C534.714 344.641 538.539 343.727 540.301 343.307C540.372 343.29 540.44 343.273 540.504 343.258Z" fill="black"/>
<path fill-rule="evenodd" clip-rule="evenodd" d="M479.259 362.249H427.508C411.492 362.249 398.508 375.232 398.508 391.249V443C398.508 459.016 411.492 472 427.508 472H479.259C495.276 472 508.259 459.016 508.259 443V391.249C508.259 375.232 495.276 362.249 479.259 362.249ZM427.508 350.249C404.864 350.249 386.508 368.605 386.508 391.249V443C386.508 465.644 404.864 484 427.508 484H479.259C501.903 484 520.259 465.644 520.259 443V391.249C520.259 368.605 501.903 350.249 479.259 350.249H427.508Z" fill="black"/>
<path fill-rule="evenodd" clip-rule="evenodd" d="M437.01 328.854C445.562 321.419 456.513 317.325 467.845 317.325H514C539.957 317.325 561 338.367 561 364.325V406.497C561 420.518 554.741 433.806 543.931 442.734L505.321 474.626L497.679 465.374L536.289 433.482C544.339 426.833 549 416.938 549 406.497V364.325C549 344.995 533.33 329.325 514 329.325H467.845C459.406 329.325 451.251 332.374 444.882 337.91L407.936 370.028L400.064 360.972L437.01 328.854Z" fill="black"/>
<path fill-rule="evenodd" clip-rule="evenodd" d="M452.515 425.626C457.211 425.626 461.017 421.82 461.017 417.124C461.017 412.429 457.211 408.623 452.515 408.623C447.82 408.623 444.013 412.429 444.013 417.124C444.013 421.82 447.82 425.626 452.515 425.626ZM452.515 433.626C461.629 433.626 469.017 426.238 469.017 417.124C469.017 408.011 461.629 400.623 452.515 400.623C443.402 400.623 436.013 408.011 436.013 417.124C436.013 426.238 443.402 433.626 452.515 433.626Z" fill="black"/>
<path fill-rule="evenodd" clip-rule="evenodd" d="M471.096 338.969C471.097 338.963 471.097 338.96 471.097 338.958C471.097 338.957 471.097 338.956 471.096 338.954C471.096 338.952 471.096 338.95 471.096 338.948C471.095 338.942 471.092 338.929 471.084 338.906C471.068 338.862 471.027 338.769 470.926 338.633C470.715 338.348 470.291 337.941 469.551 337.518C468.058 336.665 465.728 336.01 462.937 336.01C460.147 336.01 457.817 336.665 456.324 337.518C455.584 337.941 455.16 338.348 454.949 338.633C454.848 338.769 454.807 338.862 454.791 338.906C454.783 338.929 454.78 338.942 454.779 338.948C454.778 338.953 454.778 338.956 454.778 338.958C454.778 338.96 454.778 338.963 454.779 338.969C454.78 338.974 454.783 338.987 454.791 339.01C454.807 339.054 454.848 339.147 454.949 339.283C455.16 339.568 455.584 339.975 456.324 340.398C457.817 341.251 460.147 341.906 462.937 341.906C465.728 341.906 468.058 341.251 469.551 340.398C470.291 339.975 470.715 339.568 470.926 339.283C471.027 339.147 471.068 339.054 471.084 339.01C471.092 338.987 471.095 338.974 471.096 338.969ZM462.937 345.906C469.653 345.906 475.097 342.795 475.097 338.958C475.097 335.121 469.653 332.01 462.937 332.01C456.222 332.01 450.778 335.121 450.778 338.958C450.778 342.795 456.222 345.906 462.937 345.906Z" fill="black"/>
<path fill-rule="evenodd" clip-rule="evenodd" d="M503.231 338.969C503.232 338.963 503.232 338.96 503.232 338.958C503.232 338.957 503.232 338.956 503.232 338.954C503.231 338.952 503.231 338.95 503.231 338.948C503.23 338.942 503.227 338.929 503.219 338.906C503.203 338.862 503.162 338.769 503.061 338.633C502.85 338.348 502.426 337.941 501.686 337.518C500.193 336.665 497.863 336.01 495.073 336.01C492.282 336.01 489.952 336.665 488.459 337.518C487.719 337.941 487.295 338.348 487.084 338.633C486.983 338.769 486.942 338.862 486.926 338.906C486.918 338.929 486.915 338.942 486.914 338.948C486.913 338.953 486.913 338.956 486.913 338.958C486.913 338.96 486.913 338.963 486.914 338.969C486.915 338.974 486.918 338.987 486.926 339.01C486.942 339.054 486.983 339.147 487.084 339.283C487.295 339.568 487.719 339.975 488.459 340.398C489.952 341.251 492.282 341.906 495.073 341.906C497.863 341.906 500.193 341.251 501.686 340.398C502.426 339.975 502.85 339.568 503.061 339.283C503.162 339.147 503.203 339.054 503.219 339.01C503.227 338.987 503.23 338.974 503.231 338.969ZM495.073 345.906C501.788 345.906 507.232 342.795 507.232 338.958C507.232 335.121 501.788 332.01 495.073 332.01C488.357 332.01 482.913 335.121 482.913 338.958C482.913 342.795 488.357 345.906 495.073 345.906Z" fill="black"/>
<path fill-rule="evenodd" clip-rule="evenodd" d="M536.568 362.533C535.753 361.259 535.112 361.197 535.024 361.197C534.936 361.197 534.296 361.259 533.48 362.533C532.693 363.762 532.076 365.703 532.076 368.053C532.076 370.404 532.693 372.344 533.48 373.574C534.296 374.848 534.936 374.91 535.024 374.91C535.112 374.91 535.753 374.848 536.568 373.574C537.355 372.344 537.972 370.404 537.972 368.053C537.972 365.703 537.355 363.762 536.568 362.533ZM541.972 368.053C541.972 362.057 538.861 357.197 535.024 357.197C531.187 357.197 528.076 362.057 528.076 368.053C528.076 374.049 531.187 378.91 535.024 378.91C538.861 378.91 541.972 374.049 541.972 368.053Z" fill="black"/>
<path fill-rule="evenodd" clip-rule="evenodd" d="M536.568 386.851C535.753 385.577 535.112 385.515 535.024 385.515C534.936 385.515 534.296 385.577 533.48 386.851C532.693 388.08 532.076 390.021 532.076 392.372C532.076 394.722 532.693 396.663 533.48 397.892C534.296 399.166 534.936 399.228 535.024 399.228C535.112 399.228 535.753 399.166 536.568 397.892C537.355 396.663 537.972 394.722 537.972 392.372C537.972 390.021 537.355 388.08 536.568 386.851ZM541.972 392.372C541.972 386.376 538.861 381.515 535.024 381.515C531.187 381.515 528.076 386.376 528.076 392.372C528.076 398.368 531.187 403.228 535.024 403.228C538.861 403.228 541.972 398.368 541.972 392.372Z" fill="black"/>
<path fill-rule="evenodd" clip-rule="evenodd" d="M536.568 411.17C535.753 409.896 535.112 409.834 535.024 409.834C534.936 409.834 534.296 409.896 533.48 411.17C532.693 412.399 532.076 414.34 532.076 416.69C532.076 419.04 532.693 420.981 533.48 422.211C534.296 423.485 534.936 423.547 535.024 423.547C535.112 423.547 535.753 423.485 536.568 422.211C537.355 420.981 537.972 419.04 537.972 416.69C537.972 414.34 537.355 412.399 536.568 411.17ZM541.972 416.69C541.972 410.694 538.861 405.834 535.024 405.834C531.187 405.834 528.076 410.694 528.076 416.69C528.076 422.686 531.187 427.547 535.024 427.547C538.861 427.547 541.972 422.686 541.972 416.69Z" fill="black"/>
<path fill-rule="evenodd" clip-rule="evenodd" d="M537.609 333.07C537 338.248 532.637 343.578 526.873 347.498C517.534 353.848 506.879 355.751 502.465 355.917L466.152 357.497L465.848 350.503L502.183 348.923L502.194 348.922C505.603 348.796 514.913 347.165 522.937 341.709C528.029 338.246 530.397 334.457 530.657 332.252C530.761 331.365 530.529 330.941 530.165 330.621C529.654 330.17 528.378 329.522 525.653 329.428L525.894 322.432C529.465 322.556 532.587 323.427 534.789 325.366C537.139 327.434 537.939 330.266 537.609 333.07Z" fill="black"/>
<path fill-rule="evenodd" clip-rule="evenodd" d="M516 419H520V439.906C520.237 442.338 520.962 442.953 521.335 443.122C521.859 443.359 522.998 443.378 525.082 442.381C529.127 440.445 534.661 435.684 540.565 429.606L543.435 432.394C537.527 438.475 531.561 443.714 526.809 445.989C524.494 447.097 521.911 447.773 519.686 446.766C517.316 445.694 516.281 443.177 516.008 440.181L516 440.091V419Z" fill="black"/>
</svg>
